
<!-- Generator: Adobe Illustrator 22.0.0, SVG Export Plug-In . SVG Version: 6.00 Build 0)  -->
<svg version="1.1" id="图层_1" xmlns="http://www.w3.org/2000/svg" xmlns:xlink="http://www.w3.org/1999/xlink" x="0px" y="0px"
	 viewBox="0 0 500 500" style="enable-background:new 0 0 500 500;" xml:space="preserve">
<style type="text/css">
	.st0{fill:#DC5F62;}
</style>
<g>
	<path class="st0" d="M336.5,241.3V229h0v0h-28v-7.5c8.2-2.4,14.3-6.1,18.3-11.1c4-5,5.9-11.8,5.9-20.4c0-9.6-3.7-17.3-11.1-23.2
		c-7.4-5.9-17.5-8.8-30.3-8.8c-12.8,0-22.8,2.9-30.2,8.8c-7.3,5.9-11,13.6-11,23.2c0,16.4,7.9,27,23.8,31.6v7.3h-25.7h-1h-26.9v-7.5
		c8.2-2.4,14.3-6.1,18.3-11.1c4-5,5.9-11.8,5.9-20.4c0-9.6-3.7-17.3-11.1-23.2c-7.4-5.9-17.5-8.8-30.3-8.8
		c-12.8,0-22.8,2.9-30.2,8.8c-7.3,5.9-11,13.6-11,23.2c0,16.4,7.9,27,23.8,31.6v7.3h-26.8v12.3h0v0h28v7.5
		c-8.2,2.4-14.3,6.1-18.3,11.1c-4,5-5.9,11.8-5.9,20.4c0,9.6,3.7,17.3,11.1,23.2c7.4,5.9,17.5,8.8,30.3,8.8
		c12.8,0,22.8-2.9,30.2-8.8c7.3-5.9,11-13.6,11-23.2c0-16.4-7.9-27-23.8-31.6v-7.3h25.7h1h26.9v7.5c-8.2,2.4-14.3,6.1-18.3,11.1
		c-4,5-5.9,11.8-5.9,20.4c0,9.6,3.7,17.3,11.1,23.2c7.4,5.9,17.5,8.8,30.3,8.8c12.8,0,22.8-2.9,30.2-8.8c7.3-5.9,11-13.6,11-23.2
		c0-16.4-7.9-27-23.8-31.6v-7.3H336.5z M220.4,240.3v1v7.3v0.8l0.8,0.2c15.5,4.6,23.1,14.6,23.1,30.6c0,9.2-3.6,16.7-10.6,22.4
		c-7.1,5.7-17.1,8.6-29.5,8.6c-12.5,0-22.4-2.9-29.6-8.6c-7.1-5.6-10.7-13.2-10.7-22.3c0-8.3,1.9-15,5.7-19.8
		c3.8-4.8,9.8-8.4,17.7-10.8l0.8-0.2v-0.8v-7.5v-1h-1h-27v0V230h25.7h1v-1v-7.3v-0.8l-0.8-0.2c-15.5-4.6-23.1-14.6-23.1-30.6
		c0-9.2,3.6-16.7,10.6-22.4c7.1-5.7,17.1-8.6,29.5-8.6c12.5,0,22.4,2.9,29.6,8.6c7.1,5.6,10.7,13.2,10.7,22.3c0,8.3-1.9,15-5.7,19.8
		c-3.8,4.8-9.8,8.4-17.7,10.8l-0.8,0.2v0.8v7.5v1h1h26.9v10.2h-25.7H220.4z M313.6,265.4c3.9,3.5,5.9,8.4,5.9,14.5
		c0,6.1-2.5,10.9-7.5,14.5c-5,3.5-11.5,5.3-19.6,5.3c-8.1,0-14.6-1.8-19.6-5.5c-5-3.7-7.5-8.3-7.5-13.8c0-6.9,1.9-11.9,5.8-15
		c3.6-3,9.1-5.3,16.5-7v-46.1c-7.8-1.4-13.7-3.8-17.5-7.3c-3.9-3.5-5.9-8.4-5.9-14.5c0-6.1,2.5-10.9,7.5-14.5
		c5-3.5,11.5-5.3,19.6-5.3c8.1,0,14.6,1.8,19.6,5.5c5,3.7,7.5,8.3,7.5,13.8c0,6.9-1.9,11.9-5.8,15c-3.6,3-9.2,5.3-16.7,7v46
		C303.8,259.4,309.7,261.9,313.6,265.4z"/>
	<path class="st0" d="M208.7,212.9c7.2-1.7,12.7-4.1,16.3-7c4.1-3.4,6.1-8.7,6.1-15.8c0-5.8-2.7-10.7-7.9-14.6
		c-5.2-3.8-12-5.7-20.2-5.7c-8.2,0-15,1.9-20.2,5.5c-5.2,3.7-7.9,8.9-7.9,15.3c0,6.4,2.1,11.5,6.2,15.2c3.8,3.5,9.6,5.9,17.2,7.4
		v44.4c-7.2,1.7-12.6,4.1-16.1,7c-4.1,3.4-6.1,8.7-6.1,15.8c0,5.8,2.7,10.7,7.9,14.6c5.2,3.8,12,5.7,20.2,5.7c8.2,0,15-1.9,20.2-5.5
		c5.2-3.7,7.9-8.9,7.9-15.3c0-6.4-2.1-11.5-6.2-15.2c-3.9-3.5-9.7-6-17.3-7.4V212.9z M225.3,265.4c3.9,3.5,5.9,8.4,5.9,14.5
		c0,6.1-2.5,10.9-7.5,14.5c-5,3.5-11.5,5.3-19.6,5.3c-8.1,0-14.6-1.8-19.6-5.5c-5-3.7-7.5-8.3-7.5-13.8c0-6.9,1.9-11.9,5.8-15
		c3.6-3,9.1-5.3,16.5-7v-46.1c-7.8-1.4-13.7-3.8-17.5-7.3c-3.9-3.5-5.9-8.4-5.9-14.5c0-6.1,2.5-10.9,7.5-14.5
		c5-3.5,11.5-5.3,19.6-5.3c8.1,0,14.6,1.8,19.6,5.5c5,3.7,7.5,8.3,7.5,13.8c0,6.9-1.9,11.9-5.8,15c-3.6,3-9.2,5.3-16.7,7v46
		C215.5,259.4,221.4,261.9,225.3,265.4z"/>
</g>
</svg>
